#!OML:ASF H:\Dans Jumps\Project 1\Capture day 1\Session 1\subject.ASF
:FULLY-SPECIFIED
:DEGREES
189
root 0.367933 17.5219 -14.3083 6.3107 -1.45739 -1.68493
lowerback -0.622821 -0.331009 0.240461
upperback 2.87192 -0.498153 1.74157
thorax 3.31307 -0.268113 1.63885
lowerneck -15.6469 -0.635325 -2.64486
upperneck 26.6926 -0.722537 1.91489
head 11.2638 -0.359189 1.04844
rclavicle 4.22417e-015 1.47101e-014
rhumerus -21.9393 -16.9202 -79.3648
rradius 26.4677
rwrist 30.2035
rhand -18.8615 -26.8194
rfingers 7.12502
rthumb 7.43888 -56.6686
lclavicle 4.22417e-015 1.47101e-014
lhumerus -20.8043 3.70212 82.5103
lradius 20.2989
lwrist 2.25453
lhand -25.5206 -2.68677
lfingers 7.12502
lthumb 1.00878 27.2906
rfemur -14.3305 -2.26132 19.407
rtibia 21.652
rfoot -13.0184 -2.54503
rtoes 9.421
lfemur -13.4833 7.23309 -17.5717
ltibia 20.5231
lfoot -11.293 4.48868
ltoes -2.06613
190
root 0.367835 17.5233 -14.3134 6.35415 -1.41743 -1.6766
lowerback -0.580886 -0.318586 0.209788
upperback 2.88925 -0.480482 1.73799
thorax 3.30705 -0.260116 1.65319
lowerneck -15.6595 -0.625652 -2.6442
upperneck 26.7791 -0.715113 1.93519
head 11.299 -0.353389 1.05757
rclavicle -2.23633e-015 1.37161e-014
rhumerus -21.9466 -16.8679 -79.3685
rradius 26.4937
rwrist 30.1664
rhand -18.8525 -26.8321
rfingers 7.12502
rthumb 7.44755 -56.681
lclavicle -2.23633e-015 1.37161e-014
lhumerus -20.8088 3.72496 82.4566
lradius 20.2364
lwrist 2.05516
lhand -25.611 -2.97545
lfingers 7.12502
lthumb 0.921456 27.0023
rfemur -14.3871 -2.2795 19.4029
rtibia 21.6419
rfoot -12.9939 -2.56252
rtoes 9.4489
lfemur -13.5495 7.24181 -17.588
ltibia 20.5025
lfoot -11.2775 4.43156
ltoes -2.0623
191
root 0.367682 17.5247 -14.3178 6.39762 -1.3741 -1.6603
lowerback -0.544388 -0.308556 0.172194
upperback 2.90251 -0.465803 1.73216
thorax 3.3 -0.253746 1.66895
lowerneck -15.6739 -0.614671 -2.64797
upperneck 26.8668 -0.706186 1.96112
head 11.3351 -0.346653 1.06978
rclavicle -4.72114e-015 -1.41137e-014
rhumerus -21.9599 -16.8108 -79.3723
rradius 26.5162
rwrist 30.1293
rhand -18.8559 -26.8344
rfingers 7.12502
rthumb 7.44426 -56.6834
lclavicle -4.72114e-015 -1.41137e-014
lhumerus -20.82 3.76357 82.4058
lradius 20.1499
lwrist 1.82988
lhand -25.7157 -3.35427
lfingers 7.12502
lthumb 0.820344 26.6239
rfemur -14.4419 -2.30109 19.3898
rtibia 21.6356
rfoot -12.9746 -2.57969
rtoes 9.49311
lfemur -13.6084 7.24757 -17.6121
ltibia 20.4732
lfoot -11.2605 4.36956
ltoes -2.0372
192
root 0.367459 17.5261 -14.3215 6.44081 -1.32818 -1.6438
lowerback -0.512913 -0.301183 0.135285
upperback 2.91032 -0.454668 1.7259
thorax 3.29021 -0.249088 1.68373
lowerneck -15.6826 -0.602242 -2.65621
upperneck 26.9543 -0.695918 1.99323
head 11.37 -0.339024 1.08524
rclavicle -1.2424e-015 -1.78906e-015
rhumerus -21.984 -16.7524 -79.3753
rradius 26.5386
rwrist 30.0962
rhand -18.8628 -26.8314
rfingers 7.12502
rthumb 7.43762 -56.6807
lclavicle -1.2424e-015 -1.78906e-015
lhumerus -20.8415 3.81271 82.3575
lradius 20.0653
lwrist 1.62921
lhand -25.7743 -3.66346
lfingers 7.12502
lthumb 0.763718 26.3149
rfemur -14.493 -2.32514 19.3768
rtibia 21.6279
rfoot -12.9566 -2.5982
rtoes 9.53475
lfemur -13.6646 7.24869 -17.6356
ltibia 20.4445
lfoot -11.2445 4.30854
ltoes -2.0017
193
root 0.367351 17.5274 -14.3245 6.48307 -1.27675 -1.62717
lowerback -0.489024 -0.297234 0.102514
upperback 2.91614 -0.448256 1.71898
thorax 3.28275 -0.246661 1.69531
lowerneck -15.6967 -0.583796 -2.65194
upperneck 27.0449 -0.678333 2.01768
head 11.407 -0.327767 1.09686
rclavicle -5.46658e-016 1.11319e-014
rhumerus -22.0119 -16.686 -79.38
rradius 26.5597
rwrist 30.0546
rhand -18.883 -26.8214
rfingers 7.12502
rthumb 7.41807 -56.6713
lclavicle -5.46658e-016 1.11319e-014
lhumerus -20.8617 3.87009 82.3134
lradius 19.9834
lwrist 1.4757
lhand -25.7706 -3.85829
lfingers 7.12502
lthumb 0.767322 26.1201
rfemur -14.5383 -2.35994 19.3635
rtibia 21.6158
rfoot -12.9386 -2.61238
rtoes 9.56448
lfemur -13.7214 7.24508 -17.6596
ltibia 20.4227
lfoot -11.2302 4.24969
ltoes -1.98432
194
root 0.366925 17.5285 -14.3273 6.52429 -1.22308 -1.6339
lowerback -0.471061 -0.296532 0.0894442
upperback 2.91757 -0.446812 1.7185
thorax 3.27414 -0.246255 1.70226
lowerneck -15.7079 -0.563096 -2.64239
upperneck 27.1389 -0.658081 2.0382
head 11.4446 -0.3153 1.10657
rclavicle 5.11871e-015 -2.5842e-015
rhumerus -22.0501 -16.6218 -79.3866
rradius 26.5835
rwrist 30.0211
rhand -18.9001 -26.8108
rfingers 7.12502
rthumb 7.40155 -56.6613
lclavicle 5.11871e-015 -2.5842e-015
lhumerus -20.8943 3.92452 82.2718
lradius 19.9122
lwrist 1.35914
lhand -25.7311 -3.93564
lfingers 7.12502
lthumb 0.805495 26.0426
rfemur -14.5776 -2.3813 19.3772
rtibia 21.5965
rfoot -12.9158 -2.64013
rtoes 9.58683
lfemur -13.7833 7.23676 -17.6557
ltibia 20.4124
lfoot -11.2161 4.19674
ltoes -1.97696
